http://kickass.to/men-in-black-3-2012-brrip-1080p-6ch-audio-english-hindi-tamil-telugu-x264-viznu-p2pdl-t6642918.html
Download Men in Black 3 2012 BRRip 1080p[6ch Audio English Hindi Tamil Telugu]x264-ViZNU[P2PDL] Torrent - KickassTorrents
login / register
Community
blog
FAQ
Browse
latest
Search
Advanced search +7
0
report fake
Men in Black 3 2012 BRRip 1080p[6ch Audio English Hindi Tamil Telugu]x264-ViZNU[P2PDL]
seeders: 3
leechers: 2
Download torrent
Added on Sep 9, 2012 by ValidusVyto12385 in Movies > Dubbed Movies	Torrent verified.	Downloaded 1,869 times.
Main
Technical
Trailer
Comments 5
Movie: Men in Black III
IMDB link: 1409024
Detected quality: Blu-Ray
RottenTomatoes: 70% 71% Genres: Action, Sci Fi, Comedy add Men in Black III to bookmarks
Release date: 25 May 2012
Languages:
English
, Hindi
, Tamil
, Telugu
Cast: Tommy Lee Jones, Will Smith, Tim Burton, Emma Thompson, Rick Baker, Josh Brolin, Barry Sonnenfeld, Rip Torn, Will Arnett, Brad Abrell and others Available in versions: 1080p720pBlu-RayBDRipHDRiPDVDDVDRipx264MPEG-4ScreenerTeleSyncCamiPhone Men in Black 3 2012 BRRip 1080p[6ch Audio English Hindi Tamil Telugu]x264-ViZNU[P2PDL] (Size: 2.71 GB)
Cover, Screens & Sample
sample.mkv
44 MB
10.png
2.89 MB
6.png
2.83 MB
3.png
2.36 MB
5.png
2.33 MB
2.png
2.12 MB
7.png
2.01 MB
9.png
1.75 MB
8.png
1.73 MB
4.png
1.38 MB
▼ And 1 file more
Men.in.Black.3.2012.BRRip.1080p[6ch.Audio.English.Hindi.Tamil.Telugu]x264-ViZNU[P2PDL].mkv
2.65 GB
info.txt
14.09 KB
Torrent downloaded from TinyM.eu.txt
301 bytes
Torrent downloaded from p2pdl.com.txt
33 bytes
Description
Release Title: Men in Black 3 (2012)
Genre: Action | Comedy | Sci-Fi
IMDb Rating: 7.1/10 http://www.imdb.com/title/tt1409024/
Plot: Agent J travels in time to MIB's early years in the 1960s, to stop an alien from assassinating his friend Agent K and changing history.
Director: Barry Sonnenfeld
Stars: Will Smith, Tommy Lee Jones and Josh Brolin.
Rated: PG-13 for sci-fi action violence, and brief suggestive content.
General
Format : Matroska
Format version : Version 2
File size : 2.65 GiB
Duration : 1h 45mn
Overall bit rate : 3 584 Kbps
Movie name : Men.in.Black.3.2012.BRRip.1080p&#91;6ch.Audio.English.Hindi.Tamil.Telugu&#93;x264-ViZNU&#91;P2PDL&#93;
Video Source : HighCode-PHD(thanks)
Audio Source : HDCLUB(Thanks)
Video
ID : 1
Format : AVC
Format/Info : Advanced Video Codec
Codec ID : V_MPEG4/ISO/AVC
Duration : 1h 45mn
Bit rate : 1 792 Kbps
Width : 1 920 pixels
Height : 1 040 pixels
Display aspect ratio : 1.85:1
Frame rate : 23.976 fps
Color space : YUV
Chroma subsampling : 4:2:0
Bit depth : 8 bits
Scan type : Progressive
Bits/(Pixel*Frame) : 0.037
Stream size : 1.27 GiB (48%)
Writing library : x264 core 125 r2200 999b753
Default : Yes
Forced : No
Audio #1
ID : 2
Format : AC-3
Format/Info : Audio Coding 3
Mode extension : CM (complete main)
Format settings, Endianness : Big
Muxing mode : Header stripping
Codec ID : A_AC3
Duration : 1h 45mn
Bit rate mode : Constant
Bit rate : 448 Kbps
Channel(s) : 6 channels
Channel positions : Front: L C R, Side: L R, LFE
Sampling rate : 44.1 KHz
Bit depth : 16 bits
Compression mode : Lossy
Stream size : 339 MiB (12%)
Language : English
Default : Yes
Forced : No
Audio #2
ID : 3
Format : AC-3
Format/Info : Audio Coding 3
Mode extension : CM (complete main)
Format settings, Endianness : Big
Muxing mode : Header stripping
Codec ID : A_AC3
Duration : 1h 45mn
Bit rate mode : Constant
Bit rate : 448 Kbps
Channel(s) : 6 channels
Channel positions : Front: L C R, Side: L R, LFE
Sampling rate : 44.1 KHz
Bit depth : 16 bits
Compression mode : Lossy
Stream size : 339 MiB (12%)
Language : Hindi
Default : No
Forced : No
Audio #3
ID : 4
Format : AC-3
Format/Info : Audio Coding 3
Mode extension : CM (complete main)
Format settings, Endianness : Big
Muxing mode : Header stripping
Codec ID : A_AC3
Duration : 1h 45mn
Bit rate mode : Constant
Bit rate : 448 Kbps
Channel(s) : 6 channels
Channel positions : Front: L C R, Side: L R, LFE
Sampling rate : 44.1 KHz
Bit depth : 16 bits
Compression mode : Lossy
Stream size : 339 MiB (12%)
Language : Tamil
Default : No
Forced : No
Audio #4
ID : 5
Format : AC-3
Format/Info : Audio Coding 3
Mode extension : CM (complete main)
Format settings, Endianness : Big
Muxing mode : Header stripping
Codec ID : A_AC3
Duration : 1h 45mn
Bit rate mode : Constant
Bit rate : 448 Kbps
Channel(s) : 6 channels
Channel positions : Front: L C R, Side: L R, LFE
Sampling rate : 44.1 KHz
Bit depth : 16 bits
Compression mode : Lossy
Stream size : 339 MiB (12%)
Language : Telugu
Default : No
Forced : No
Subtitle : No
Screens:
Sample:
http://t72.in/BKNEZ
------------------------------------------------------------------------
Recommend you to use VLC player. Check sample to be sure. Enjoy!


Greets to: srkfan, Vitamin_X, MgB, Feel_Free, staff members at ExtraTorrent, TPB, H33T, KAT, 1337x, PublicHD, Ahashare,
SilverTorrent, TorrentMafia, P2PDL, and all others


Encoder Notes: Looking For Early Access To Anything You Can Provide DVDScr, R5, DVDRips, BluRay, Direct Audio, Early Music
Releases, Seedboxes, Links, Dedicated Servers anything u can provide, Advance / Promo CDs/DVDs. If You Got anything to
offer contact me at &quot;contact@tinym.eu&quot;
Facebook Group: http://www.facebook.com/groups/489764764372211/
Facebook Fan Page: http://www.facebook.com/p2pdl
Related Torrents
torrent name
size
files
age
seed
leech
20	Men In Black 3 (2012) BRRip 720p x264 [Dual Audio] [Hindi+English]--AbhinavRocks {{-HKRG-}}
Posted by Abhinav_Rocks in Movies > Highres Movies 849.55 MB
20
1 year
8
11
2	Pirates of the Caribbean The Curse of the Black Pearl [2003] 720p BRRip [Dual Audio] [English + Hindi] AAC x264 BUZZccd [WBRG]
Posted by BUZZ-CCD in Movies > Dubbed Movies 1.05 GB
15
2 months
6
13
4	Men In Black 2 (2002) BRRip 720p x264 [Dual Audio] [Hindi+English]--AbhinavRocks {{-HKRG-}}
Posted by Abhinav_Rocks in Movies > Highres Movies 774.15 MB
20
1 year
6
6
4	Men In Black 1 (1997) BRRip 720p x264 [Dual Audio] [Hindi+English]--AbhinavRocks {{-HKRG-}}
Posted by Abhinav_Rocks in Movies > Highres Movies 824.81 MB
20
1 year
5
8
6	Pirates of the Caribbean The Curse of the Black Pearl (2003) 1080p BRrip Dual Audio {Hindi-English}~SaNRiM~
Posted by SaNRiM in Movies > Dubbed Movies 2.62 GB
2
10 months
4
4
Sharing Widget
Download torrent
2.71 GB
seeders:3
leechers:2
Men in Black 3 2012 BRRip 1080p[6ch Audio English Hindi Tamil Telugu]x264-ViZNU[P2PDL]
html bbcode Trackers
refresh
tracker name
Status
checked
seeders
leechers
downloads
udp://9.rarbg.com:2710/announce
outdated
10 Mar 2013
-
-
-
http://ipv4.tracker.harry.lu/announce
outdated
10 Mar 2013
-
-
-
udp://tracker.openbittorrent.com:80/announce
outdated
10 Mar 2013
-
-
-
http://tracker.ex.ua/announce
outdated
10 Mar 2013
-
-
-
udp://tracker.publicbt.com:80/announce
outdated
10 Mar 2013
-
-
-
udp://tracker.istole.it:80/announce
outdated
10 Mar 2013
-
-
-
udp://tracker.ccc.de:80/announce
deleted
10 Mar 2013
-
-
-
udp://fr33domtracker.h33t.com:3310/announce
deleted
10 Mar 2013
-
-
-
http://tracker.publichd.eu/announce
pending
10 Mar 2013
0
0
0
udp://p2pdl.com:2710/announce
pending
10 Mar 2013
2
0
562
µTorrent compatible trackers list
udp://9.rarbg.com:2710/announce
http://ipv4.tracker.harry.lu/announce
udp://tracker.openbittorrent.com:80/announce
http://tracker.ex.ua/announce
udp://tracker.publicbt.com:80/announce
udp://tracker.istole.it:80/announce
udp://tracker.ccc.de:80/announce
udp://fr33domtracker.h33t.com:3310/announce
http://tracker.publichd.eu/announce
udp://p2pdl.com:2710/announce
udp://tracker.openbittorrent.com/announce
Locations
name
KickassTorrents
Torrent hash: 519212DACE45D1609FCD535B1DAC25D1C4D7B098
All Comments
audio
vote 1 awful
2
3
4
5
6
7
8
9
10 best
8/10
video vote 1 awful
2
3
4
5
6
7
8
9
10 best
8/10
please, leave only comments related to that torrent
Not seeing the captcha?
Captcha *:
Post as a guest
or sign-in
0
jiraju777
• 06 December 2012, 17:54 Show comment
audio: 8video: 8 thanks... reply
close
0
dhamm28
• 24 November 2012, 13:50 Show comment
audio: 7video: 8 reply
close
0
CERB3582
• 17 November 2012, 04:07 Show comment
audio: 10video: 10 reply
close
0
Teh_Reh_Rooster349
• 21 October 2012, 12:30 Show comment
audio: 8video: 8 Thanks, good quality, no sound or video issues. Only plays in VCL player though. reply
close
0
Mr.Assho82
• 10 October 2012, 02:15 Show comment
Ok Print,i rather wait HD reply
close
Not seeing the captcha?
Captcha *:
reply
User Opinions
jhonatan.rocha.tdo420, tharak99176, digi_man159, suvvi89, Ankur9300042, Wilko070835, dhamm28 Advertising (remove)
Latest Forum Threads
What are you reading right now?by katheryn2135 1 min. ago
.::FLiCKSiCK HD::.by FLiCKSiCK 4 min. ago
Tv Show Dominionby EvilDeadGuy 12 min. ago
Volume issuesby joesun1 16 min. ago
HELP MS OFFICE 2010 that's good.by LaAlpha 17 min. ago
Doctor Who Threadby Cariad 26 min. ago
Latest News
May'14 Updatesby KickassTorrents 1 month ago
April'14 Updatesby KickassTorrents 2 months ago
March upd.1 - Uploader rules fix and Torrents Day 2014by KickassTorrents 3 months ago
Blogroll
Question number (277)by man2014now 11 hours ago
Number 100by The.Phoenix 15 hours ago
Religion, Humanity, And The Search For Meaningby VikTSlick 20 hours ago
Outside my Window Part 3by johnno23 yesterday
Question number (276)by man2014now yesterday
Answer - 42by suicyco 2 days ago
Goodies
Firefox search plugin
uTorrent search template
Follow us on Twitter
Kickass wallpapers
Like us on Facebook
IRC official chat
Latest Searches
aerosmith amazing
just now
anvil
just now
strings
just now
heaven is for real
just now
kanye west my beautiful dark fantasy
just now
big brother
just now
the smile sessions
just now
masterchef us s05
just now
the amity affliction – youngbloods
just now
star wars battlefront
just now
leningrad cowboys
just now
Friends Links
Torrents.to
Torrent Downloads
TorrentReactor
Torrent Finder
Select Your Language
English
Afrikaans
Basque
Bengali
Bosnian
Chinese Simplified
Croatian
Czech
Danish
Dutch
Filipino
Finnish
French
Georgian
German
Greek
Hindi
Hungarian
Indonesian
Italian
Lithuanian
Malaysian
Norwegian
Pirate
Polish
Portuguese
Romanian
Russian
Serbian
Serbian-Cyrillic
Slovak
Spanish
Swedish
Telugu
Turkish
change language
rules
idea box
Achievements
trends
Latest Searches
torrent requests about
privacy
dmca
logos
contacts
api
chat
BitCoin: 19CWNopXCHSwWtWQ89NHC471LMn2Gy5j5G
Report a bug

